<mxfile host="app.diagrams.net" modified="2023-06-26T20:29:38.075Z" agent="Mozilla/5.0 (Windows NT 10.0; Win64; x64) AppleWebKit/537.36 (KHTML, like Gecko) Chrome/114.0.0.0 Safari/537.36 Edg/114.0.1823.58" etag="smlaorM7zrjvByi4ZIEd" version="21.5.0" type="github">
  <diagram name="Page-1" id="58cdce13-f638-feb5-8d6f-7d28b1aa9fa0">
    <mxGraphModel dx="1562" dy="858" grid="1" gridSize="10" guides="1" tooltips="1" connect="1" arrows="1" fold="1" page="1" pageScale="1" pageWidth="1100" pageHeight="850" math="0" shadow="0">
      <root>
        <mxCell id="0" />
        <mxCell id="1" parent="0" />
        <mxCell id="PfELx_L-BwReNAMXQcTy-16" style="edgeStyle=orthogonalEdgeStyle;rounded=0;orthogonalLoop=1;jettySize=auto;html=1;entryX=0.5;entryY=0;entryDx=0;entryDy=0;" parent="1" source="382b91b5511bd0f7-1" target="382b91b5511bd0f7-6" edge="1">
          <mxGeometry relative="1" as="geometry" />
        </mxCell>
        <mxCell id="382b91b5511bd0f7-1" value="" style="ellipse;html=1;shape=startState;rounded=1;shadow=0;comic=0;labelBackgroundColor=none;fontFamily=Verdana;fontSize=12;align=center;direction=south;" parent="1" vertex="1">
          <mxGeometry x="285" y="20" width="30" height="30" as="geometry" />
        </mxCell>
        <mxCell id="PfELx_L-BwReNAMXQcTy-17" style="edgeStyle=orthogonalEdgeStyle;rounded=0;orthogonalLoop=1;jettySize=auto;html=1;entryX=0.5;entryY=0;entryDx=0;entryDy=0;" parent="1" source="382b91b5511bd0f7-5" target="PfELx_L-BwReNAMXQcTy-1" edge="1">
          <mxGeometry relative="1" as="geometry" />
        </mxCell>
        <mxCell id="382b91b5511bd0f7-5" value="Завершена" style="rounded=1;whiteSpace=wrap;html=1;arcSize=24;shadow=0;comic=0;labelBackgroundColor=none;fontFamily=Verdana;fontSize=12;align=center;fillColor=#d5e8d4;strokeColor=#82b366;" parent="1" vertex="1">
          <mxGeometry x="240" y="500" width="120" height="60" as="geometry" />
        </mxCell>
        <mxCell id="PfELx_L-BwReNAMXQcTy-4" style="edgeStyle=orthogonalEdgeStyle;rounded=0;orthogonalLoop=1;jettySize=auto;html=1;entryX=0.5;entryY=0;entryDx=0;entryDy=0;" parent="1" source="382b91b5511bd0f7-6" target="382b91b5511bd0f7-10" edge="1">
          <mxGeometry relative="1" as="geometry" />
        </mxCell>
        <mxCell id="PfELx_L-BwReNAMXQcTy-8" value="Заявка отменена &lt;br&gt;диспетчером &lt;br&gt;по какой-либо причине" style="edgeLabel;html=1;align=center;verticalAlign=middle;resizable=0;points=[];" parent="PfELx_L-BwReNAMXQcTy-4" vertex="1" connectable="0">
          <mxGeometry x="-0.0508" relative="1" as="geometry">
            <mxPoint as="offset" />
          </mxGeometry>
        </mxCell>
        <mxCell id="PfELx_L-BwReNAMXQcTy-6" style="edgeStyle=orthogonalEdgeStyle;rounded=0;orthogonalLoop=1;jettySize=auto;html=1;entryX=0.5;entryY=0;entryDx=0;entryDy=0;" parent="1" source="382b91b5511bd0f7-6" target="382b91b5511bd0f7-9" edge="1">
          <mxGeometry relative="1" as="geometry" />
        </mxCell>
        <mxCell id="PfELx_L-BwReNAMXQcTy-18" style="edgeStyle=orthogonalEdgeStyle;rounded=0;orthogonalLoop=1;jettySize=auto;html=1;entryX=0.5;entryY=0;entryDx=0;entryDy=0;" parent="1" source="382b91b5511bd0f7-6" target="382b91b5511bd0f7-7" edge="1">
          <mxGeometry relative="1" as="geometry" />
        </mxCell>
        <mxCell id="IsaRkWrQDIZeBcke8IJp-1" value="Выездной сотрудник&lt;br&gt;принял наряд" style="edgeLabel;html=1;align=center;verticalAlign=middle;resizable=0;points=[];" parent="PfELx_L-BwReNAMXQcTy-18" vertex="1" connectable="0">
          <mxGeometry x="-0.2154" y="2" relative="1" as="geometry">
            <mxPoint x="-2" as="offset" />
          </mxGeometry>
        </mxCell>
        <mxCell id="382b91b5511bd0f7-6" value="Новая" style="rounded=1;whiteSpace=wrap;html=1;arcSize=24;shadow=0;comic=0;labelBackgroundColor=none;fontFamily=Verdana;fontSize=12;align=center;fillColor=#dae8fc;strokeColor=#6c8ebf;" parent="1" vertex="1">
          <mxGeometry x="240" y="120" width="120" height="60" as="geometry" />
        </mxCell>
        <mxCell id="PfELx_L-BwReNAMXQcTy-15" style="edgeStyle=orthogonalEdgeStyle;rounded=0;orthogonalLoop=1;jettySize=auto;html=1;" parent="1" source="382b91b5511bd0f7-7" target="382b91b5511bd0f7-5" edge="1">
          <mxGeometry relative="1" as="geometry" />
        </mxCell>
        <mxCell id="IsaRkWrQDIZeBcke8IJp-2" value="Выездной сотрудник&amp;nbsp;&lt;br&gt;выполнил наряд" style="edgeLabel;html=1;align=center;verticalAlign=middle;resizable=0;points=[];" parent="PfELx_L-BwReNAMXQcTy-15" vertex="1" connectable="0">
          <mxGeometry x="-0.2462" y="2" relative="1" as="geometry">
            <mxPoint x="-2" as="offset" />
          </mxGeometry>
        </mxCell>
        <mxCell id="382b91b5511bd0f7-7" value="В работе" style="rounded=1;whiteSpace=wrap;html=1;arcSize=24;shadow=0;comic=0;labelBackgroundColor=none;fontFamily=Verdana;fontSize=12;align=center;fillColor=#fff2cc;strokeColor=#d6b656;" parent="1" vertex="1">
          <mxGeometry x="240" y="310" width="120" height="60" as="geometry" />
        </mxCell>
        <mxCell id="PfELx_L-BwReNAMXQcTy-7" style="edgeStyle=orthogonalEdgeStyle;rounded=0;orthogonalLoop=1;jettySize=auto;html=1;entryX=1;entryY=0.5;entryDx=0;entryDy=0;" parent="1" source="382b91b5511bd0f7-9" target="PfELx_L-BwReNAMXQcTy-1" edge="1">
          <mxGeometry relative="1" as="geometry">
            <Array as="points">
              <mxPoint x="530" y="695" />
            </Array>
          </mxGeometry>
        </mxCell>
        <mxCell id="382b91b5511bd0f7-9" value="Отменена жильцом" style="rounded=1;whiteSpace=wrap;html=1;arcSize=24;shadow=0;comic=0;labelBackgroundColor=none;fontFamily=Verdana;fontSize=12;align=center;fillColor=#f8cecc;strokeColor=#b85450;" parent="1" vertex="1">
          <mxGeometry x="470" y="350" width="120" height="60" as="geometry" />
        </mxCell>
        <mxCell id="PfELx_L-BwReNAMXQcTy-5" style="edgeStyle=orthogonalEdgeStyle;rounded=0;orthogonalLoop=1;jettySize=auto;html=1;entryX=0;entryY=0.5;entryDx=0;entryDy=0;exitX=0.5;exitY=1;exitDx=0;exitDy=0;" parent="1" source="382b91b5511bd0f7-10" target="PfELx_L-BwReNAMXQcTy-1" edge="1">
          <mxGeometry relative="1" as="geometry" />
        </mxCell>
        <mxCell id="382b91b5511bd0f7-10" value="Отменена диспетчером" style="rounded=1;whiteSpace=wrap;html=1;arcSize=24;shadow=0;comic=0;labelBackgroundColor=none;fontFamily=Verdana;fontSize=12;align=center;fillColor=#f8cecc;strokeColor=#b85450;" parent="1" vertex="1">
          <mxGeometry y="440" width="120" height="60" as="geometry" />
        </mxCell>
        <mxCell id="PfELx_L-BwReNAMXQcTy-1" value="" style="ellipse;html=1;shape=endState;" parent="1" vertex="1">
          <mxGeometry x="285" y="680" width="30" height="30" as="geometry" />
        </mxCell>
        <mxCell id="PfELx_L-BwReNAMXQcTy-9" value="Заявка отменена &lt;br&gt;жильцом&lt;br&gt;по какой-либо причине" style="edgeLabel;html=1;align=center;verticalAlign=middle;resizable=0;points=[];" parent="1" vertex="1" connectable="0">
          <mxGeometry x="530" y="250" as="geometry" />
        </mxCell>
        <mxCell id="IsaRkWrQDIZeBcke8IJp-3" style="edgeStyle=orthogonalEdgeStyle;rounded=0;orthogonalLoop=1;jettySize=auto;html=1;entryX=0.5;entryY=0;entryDx=0;entryDy=0;" parent="1" source="IsaRkWrQDIZeBcke8IJp-4" target="IsaRkWrQDIZeBcke8IJp-9" edge="1">
          <mxGeometry relative="1" as="geometry" />
        </mxCell>
        <mxCell id="IsaRkWrQDIZeBcke8IJp-4" value="" style="ellipse;html=1;shape=startState;rounded=1;shadow=0;comic=0;labelBackgroundColor=none;fontFamily=Verdana;fontSize=12;align=center;direction=south;" parent="1" vertex="1">
          <mxGeometry x="785" y="20" width="30" height="30" as="geometry" />
        </mxCell>
        <mxCell id="IsaRkWrQDIZeBcke8IJp-5" style="edgeStyle=orthogonalEdgeStyle;rounded=0;orthogonalLoop=1;jettySize=auto;html=1;entryX=0.5;entryY=0;entryDx=0;entryDy=0;" parent="1" source="IsaRkWrQDIZeBcke8IJp-6" target="IsaRkWrQDIZeBcke8IJp-13" edge="1">
          <mxGeometry relative="1" as="geometry" />
        </mxCell>
        <mxCell id="IsaRkWrQDIZeBcke8IJp-6" value="Завершен" style="rounded=1;whiteSpace=wrap;html=1;arcSize=24;shadow=0;comic=0;labelBackgroundColor=none;fontFamily=Verdana;fontSize=12;align=center;fillColor=#d5e8d4;strokeColor=#82b366;" parent="1" vertex="1">
          <mxGeometry x="740" y="500" width="120" height="60" as="geometry" />
        </mxCell>
        <mxCell id="IsaRkWrQDIZeBcke8IJp-7" style="edgeStyle=orthogonalEdgeStyle;rounded=0;orthogonalLoop=1;jettySize=auto;html=1;entryX=0.5;entryY=0;entryDx=0;entryDy=0;" parent="1" source="IsaRkWrQDIZeBcke8IJp-9" target="IsaRkWrQDIZeBcke8IJp-12" edge="1">
          <mxGeometry relative="1" as="geometry" />
        </mxCell>
        <mxCell id="IsaRkWrQDIZeBcke8IJp-8" value="Выездной сотрудник&lt;br&gt;принял наряд" style="edgeLabel;html=1;align=center;verticalAlign=middle;resizable=0;points=[];" parent="IsaRkWrQDIZeBcke8IJp-7" vertex="1" connectable="0">
          <mxGeometry x="-0.2154" y="2" relative="1" as="geometry">
            <mxPoint x="-2" as="offset" />
          </mxGeometry>
        </mxCell>
        <mxCell id="0RbRAwxbn6NbvC2fBg45-2" style="edgeStyle=orthogonalEdgeStyle;rounded=0;orthogonalLoop=1;jettySize=auto;html=1;entryX=0.5;entryY=0;entryDx=0;entryDy=0;" parent="1" source="IsaRkWrQDIZeBcke8IJp-9" target="0RbRAwxbn6NbvC2fBg45-1" edge="1">
          <mxGeometry relative="1" as="geometry" />
        </mxCell>
        <mxCell id="0RbRAwxbn6NbvC2fBg45-4" value="Диспетчер &lt;br&gt;отменил &lt;br&gt;наряд&amp;nbsp;" style="edgeLabel;html=1;align=center;verticalAlign=middle;resizable=0;points=[];" parent="0RbRAwxbn6NbvC2fBg45-2" vertex="1" connectable="0">
          <mxGeometry x="0.2808" y="2" relative="1" as="geometry">
            <mxPoint x="-2" y="21" as="offset" />
          </mxGeometry>
        </mxCell>
        <mxCell id="IsaRkWrQDIZeBcke8IJp-9" value="Новый" style="rounded=1;whiteSpace=wrap;html=1;arcSize=24;shadow=0;comic=0;labelBackgroundColor=none;fontFamily=Verdana;fontSize=12;align=center;fillColor=#dae8fc;strokeColor=#6c8ebf;" parent="1" vertex="1">
          <mxGeometry x="740" y="120" width="120" height="60" as="geometry" />
        </mxCell>
        <mxCell id="IsaRkWrQDIZeBcke8IJp-10" style="edgeStyle=orthogonalEdgeStyle;rounded=0;orthogonalLoop=1;jettySize=auto;html=1;" parent="1" source="IsaRkWrQDIZeBcke8IJp-12" target="IsaRkWrQDIZeBcke8IJp-6" edge="1">
          <mxGeometry relative="1" as="geometry" />
        </mxCell>
        <mxCell id="IsaRkWrQDIZeBcke8IJp-11" value="Выездной сотрудник&amp;nbsp;&lt;br&gt;выполнил наряд" style="edgeLabel;html=1;align=center;verticalAlign=middle;resizable=0;points=[];" parent="IsaRkWrQDIZeBcke8IJp-10" vertex="1" connectable="0">
          <mxGeometry x="-0.2462" y="2" relative="1" as="geometry">
            <mxPoint x="-2" as="offset" />
          </mxGeometry>
        </mxCell>
        <mxCell id="IsaRkWrQDIZeBcke8IJp-12" value="В работе" style="rounded=1;whiteSpace=wrap;html=1;arcSize=24;shadow=0;comic=0;labelBackgroundColor=none;fontFamily=Verdana;fontSize=12;align=center;fillColor=#fff2cc;strokeColor=#d6b656;" parent="1" vertex="1">
          <mxGeometry x="740" y="310" width="120" height="60" as="geometry" />
        </mxCell>
        <mxCell id="IsaRkWrQDIZeBcke8IJp-13" value="" style="ellipse;html=1;shape=endState;" parent="1" vertex="1">
          <mxGeometry x="785" y="680" width="30" height="30" as="geometry" />
        </mxCell>
        <mxCell id="0RbRAwxbn6NbvC2fBg45-3" style="edgeStyle=orthogonalEdgeStyle;rounded=0;orthogonalLoop=1;jettySize=auto;html=1;entryX=1;entryY=0.5;entryDx=0;entryDy=0;exitX=0.5;exitY=1;exitDx=0;exitDy=0;" parent="1" source="0RbRAwxbn6NbvC2fBg45-1" target="IsaRkWrQDIZeBcke8IJp-13" edge="1">
          <mxGeometry relative="1" as="geometry" />
        </mxCell>
        <mxCell id="0RbRAwxbn6NbvC2fBg45-1" value="Отменен" style="rounded=1;whiteSpace=wrap;html=1;arcSize=24;shadow=0;comic=0;labelBackgroundColor=none;fontFamily=Verdana;fontSize=12;align=center;fillColor=#f8cecc;strokeColor=#b85450;" parent="1" vertex="1">
          <mxGeometry x="920" y="310" width="120" height="60" as="geometry" />
        </mxCell>
        <mxCell id="CU4sPlp0SQP0zu20LKeW-6" style="edgeStyle=orthogonalEdgeStyle;rounded=0;orthogonalLoop=1;jettySize=auto;html=1;entryX=0;entryY=0.5;entryDx=0;entryDy=0;" edge="1" parent="1" source="CU4sPlp0SQP0zu20LKeW-1" target="CU4sPlp0SQP0zu20LKeW-2">
          <mxGeometry relative="1" as="geometry" />
        </mxCell>
        <mxCell id="CU4sPlp0SQP0zu20LKeW-1" value="Start" style="ellipse;whiteSpace=wrap;html=1;aspect=fixed;" vertex="1" parent="1">
          <mxGeometry x="50" y="770" width="50" height="50" as="geometry" />
        </mxCell>
        <mxCell id="CU4sPlp0SQP0zu20LKeW-8" style="edgeStyle=orthogonalEdgeStyle;rounded=0;orthogonalLoop=1;jettySize=auto;html=1;entryX=0;entryY=0.5;entryDx=0;entryDy=0;" edge="1" parent="1" source="CU4sPlp0SQP0zu20LKeW-2" target="CU4sPlp0SQP0zu20LKeW-3">
          <mxGeometry relative="1" as="geometry" />
        </mxCell>
        <mxCell id="CU4sPlp0SQP0zu20LKeW-11" style="edgeStyle=orthogonalEdgeStyle;orthogonalLoop=1;jettySize=auto;html=1;entryX=0;entryY=0.5;entryDx=0;entryDy=0;curved=1;exitX=0.5;exitY=1;exitDx=0;exitDy=0;" edge="1" parent="1" source="CU4sPlp0SQP0zu20LKeW-2" target="CU4sPlp0SQP0zu20LKeW-7">
          <mxGeometry relative="1" as="geometry" />
        </mxCell>
        <mxCell id="CU4sPlp0SQP0zu20LKeW-2" value="S1" style="ellipse;whiteSpace=wrap;html=1;aspect=fixed;fillColor=#dae8fc;strokeColor=#6c8ebf;" vertex="1" parent="1">
          <mxGeometry x="140" y="770" width="50" height="50" as="geometry" />
        </mxCell>
        <mxCell id="CU4sPlp0SQP0zu20LKeW-9" style="edgeStyle=orthogonalEdgeStyle;rounded=0;orthogonalLoop=1;jettySize=auto;html=1;entryX=0;entryY=0.5;entryDx=0;entryDy=0;" edge="1" parent="1" source="CU4sPlp0SQP0zu20LKeW-3" target="CU4sPlp0SQP0zu20LKeW-4">
          <mxGeometry relative="1" as="geometry" />
        </mxCell>
        <mxCell id="CU4sPlp0SQP0zu20LKeW-3" value="S2" style="ellipse;whiteSpace=wrap;html=1;aspect=fixed;fillColor=#fff2cc;strokeColor=#d6b656;" vertex="1" parent="1">
          <mxGeometry x="230" y="770" width="50" height="50" as="geometry" />
        </mxCell>
        <mxCell id="CU4sPlp0SQP0zu20LKeW-10" style="edgeStyle=orthogonalEdgeStyle;rounded=0;orthogonalLoop=1;jettySize=auto;html=1;entryX=0;entryY=0.5;entryDx=0;entryDy=0;" edge="1" parent="1" source="CU4sPlp0SQP0zu20LKeW-4" target="CU4sPlp0SQP0zu20LKeW-5">
          <mxGeometry relative="1" as="geometry" />
        </mxCell>
        <mxCell id="CU4sPlp0SQP0zu20LKeW-4" value="S3" style="ellipse;whiteSpace=wrap;html=1;aspect=fixed;fillColor=#d5e8d4;strokeColor=#82b366;" vertex="1" parent="1">
          <mxGeometry x="320" y="770" width="50" height="50" as="geometry" />
        </mxCell>
        <mxCell id="CU4sPlp0SQP0zu20LKeW-5" value="End" style="ellipse;whiteSpace=wrap;html=1;aspect=fixed;" vertex="1" parent="1">
          <mxGeometry x="410" y="770" width="50" height="50" as="geometry" />
        </mxCell>
        <mxCell id="CU4sPlp0SQP0zu20LKeW-12" style="edgeStyle=orthogonalEdgeStyle;orthogonalLoop=1;jettySize=auto;html=1;entryX=0.5;entryY=1;entryDx=0;entryDy=0;curved=1;" edge="1" parent="1" source="CU4sPlp0SQP0zu20LKeW-7" target="CU4sPlp0SQP0zu20LKeW-5">
          <mxGeometry relative="1" as="geometry" />
        </mxCell>
        <mxCell id="CU4sPlp0SQP0zu20LKeW-7" value="S4" style="ellipse;whiteSpace=wrap;html=1;aspect=fixed;fillColor=#f8cecc;strokeColor=#b85450;" vertex="1" parent="1">
          <mxGeometry x="230" y="850" width="50" height="50" as="geometry" />
        </mxCell>
        <mxCell id="CU4sPlp0SQP0zu20LKeW-13" style="edgeStyle=orthogonalEdgeStyle;rounded=0;orthogonalLoop=1;jettySize=auto;html=1;entryX=0;entryY=0.5;entryDx=0;entryDy=0;" edge="1" parent="1" source="CU4sPlp0SQP0zu20LKeW-14" target="CU4sPlp0SQP0zu20LKeW-17">
          <mxGeometry relative="1" as="geometry" />
        </mxCell>
        <mxCell id="CU4sPlp0SQP0zu20LKeW-14" value="Start" style="ellipse;whiteSpace=wrap;html=1;aspect=fixed;" vertex="1" parent="1">
          <mxGeometry x="670" y="760" width="50" height="50" as="geometry" />
        </mxCell>
        <mxCell id="CU4sPlp0SQP0zu20LKeW-15" style="edgeStyle=orthogonalEdgeStyle;rounded=0;orthogonalLoop=1;jettySize=auto;html=1;entryX=0;entryY=0.5;entryDx=0;entryDy=0;" edge="1" parent="1" source="CU4sPlp0SQP0zu20LKeW-17" target="CU4sPlp0SQP0zu20LKeW-19">
          <mxGeometry relative="1" as="geometry" />
        </mxCell>
        <mxCell id="CU4sPlp0SQP0zu20LKeW-16" style="edgeStyle=orthogonalEdgeStyle;orthogonalLoop=1;jettySize=auto;html=1;entryX=0;entryY=0.5;entryDx=0;entryDy=0;curved=1;exitX=0.5;exitY=1;exitDx=0;exitDy=0;" edge="1" parent="1" source="CU4sPlp0SQP0zu20LKeW-17" target="CU4sPlp0SQP0zu20LKeW-24">
          <mxGeometry relative="1" as="geometry" />
        </mxCell>
        <mxCell id="CU4sPlp0SQP0zu20LKeW-17" value="S1" style="ellipse;whiteSpace=wrap;html=1;aspect=fixed;fillColor=#dae8fc;strokeColor=#6c8ebf;" vertex="1" parent="1">
          <mxGeometry x="760" y="760" width="50" height="50" as="geometry" />
        </mxCell>
        <mxCell id="CU4sPlp0SQP0zu20LKeW-18" style="edgeStyle=orthogonalEdgeStyle;rounded=0;orthogonalLoop=1;jettySize=auto;html=1;entryX=0;entryY=0.5;entryDx=0;entryDy=0;" edge="1" parent="1" source="CU4sPlp0SQP0zu20LKeW-19" target="CU4sPlp0SQP0zu20LKeW-21">
          <mxGeometry relative="1" as="geometry" />
        </mxCell>
        <mxCell id="CU4sPlp0SQP0zu20LKeW-19" value="S2" style="ellipse;whiteSpace=wrap;html=1;aspect=fixed;fillColor=#fff2cc;strokeColor=#d6b656;" vertex="1" parent="1">
          <mxGeometry x="850" y="760" width="50" height="50" as="geometry" />
        </mxCell>
        <mxCell id="CU4sPlp0SQP0zu20LKeW-20" style="edgeStyle=orthogonalEdgeStyle;rounded=0;orthogonalLoop=1;jettySize=auto;html=1;entryX=0;entryY=0.5;entryDx=0;entryDy=0;" edge="1" parent="1" source="CU4sPlp0SQP0zu20LKeW-21" target="CU4sPlp0SQP0zu20LKeW-22">
          <mxGeometry relative="1" as="geometry" />
        </mxCell>
        <mxCell id="CU4sPlp0SQP0zu20LKeW-21" value="S3" style="ellipse;whiteSpace=wrap;html=1;aspect=fixed;fillColor=#d5e8d4;strokeColor=#82b366;" vertex="1" parent="1">
          <mxGeometry x="940" y="760" width="50" height="50" as="geometry" />
        </mxCell>
        <mxCell id="CU4sPlp0SQP0zu20LKeW-22" value="End" style="ellipse;whiteSpace=wrap;html=1;aspect=fixed;" vertex="1" parent="1">
          <mxGeometry x="1030" y="760" width="50" height="50" as="geometry" />
        </mxCell>
        <mxCell id="CU4sPlp0SQP0zu20LKeW-23" style="edgeStyle=orthogonalEdgeStyle;orthogonalLoop=1;jettySize=auto;html=1;entryX=0.5;entryY=1;entryDx=0;entryDy=0;curved=1;" edge="1" parent="1" source="CU4sPlp0SQP0zu20LKeW-24" target="CU4sPlp0SQP0zu20LKeW-22">
          <mxGeometry relative="1" as="geometry" />
        </mxCell>
        <mxCell id="CU4sPlp0SQP0zu20LKeW-24" value="S4" style="ellipse;whiteSpace=wrap;html=1;aspect=fixed;fillColor=#f8cecc;strokeColor=#b85450;" vertex="1" parent="1">
          <mxGeometry x="850" y="840" width="50" height="50" as="geometry" />
        </mxCell>
      </root>
    </mxGraphModel>
  </diagram>
</mxfile>
